<?xml version="1.0" encoding="utf-8"?>
<!-- Generator: Adobe Illustrator 22.0.1, SVG Export Plug-In . SVG Version: 6.00 Build 0)  -->
<svg version="1.1" id="Layer_1" xmlns="http://www.w3.org/2000/svg" xmlns:xlink="http://www.w3.org/1999/xlink" x="0px" y="0px"
	 viewBox="0 0 144 90" style="enable-background:new 0 0 144 90;" xml:space="preserve">
<style type="text/css">
	.st0{fill:#ECEEF1;}
</style>
<g>
	<g>
		<path class="st0" d="M20.7,35.4c0.4,0,0.8,0,1.1,0c4.4,0,8.9,0,13.3,0c2.3,0,4.6,0,6.9-0.1c2.3-0.1,4.5-0.7,6.6-1.8
			c2-1.1,3.3-2.7,3.8-4.9c0.5-2,0.6-4,0.2-5.9c-0.6-3.1-2.4-5.2-5.5-6c-2.2-0.6-4.4-1-6.7-1c-6.3-0.1-12.5-0.1-18.8-0.1l-0.8,0.1
			V35.4z M20.7,74.3l1,0.1c6,0,12.1,0,18.1,0c2.3,0,4.6-0.2,6.9-0.8c3.6-1,6-3.3,7.2-6.8c0.7-2.1,0.9-4.3,0.7-6.5
			c-0.3-2.9-1.3-5.4-3.7-7.2c-1.2-0.9-2.5-1.5-3.9-1.9c-2.3-0.6-4.7-0.8-7.1-0.8c-6,0-11.9,0-17.9,0c-0.4,0-0.7,0-1.2,0.1V74.3z
			 M0,90V0.1L1,0c14,0,28.1,0,42.1,0c4.5,0,8.9,0.6,13.1,2.1c8.3,3.1,13.1,9.1,14.1,18c0.4,3.1,0.2,6.2-0.5,9.3
			c-1,4.3-3.3,7.7-6.9,10.2c-1,0.7-2,1.3-3.2,2c0.4,0.2,0.8,0.4,1.1,0.5c5.7,2.4,9.5,6.6,11.4,12.5c0.7,2.1,1,4.2,1.1,6.4
			c0.4,8.2-2.2,15.3-8,21.2c-3.6,3.6-8.1,5.7-13,6.6c-4,0.7-7.9,1.1-12,1.1c-13,0-26,0-38.9,0H0z"/>
	</g>
	<g>
		<path class="st0" d="M97.8,48.4c1.2,0.2,27.9,0.2,28.8-0.1c-0.1-0.5-0.1-1.1-0.2-1.7c-0.9-5.8-4.1-9.5-9.7-11.2
			c-2-0.6-4.1-0.7-6.1-0.5c-5.1,0.4-8.8,2.8-11.1,7.5c-0.8,1.6-1.3,3.4-1.6,5.1L97.8,48.4z M144,59.7H97.4c-0.2,1.2,0,2.3,0.2,3.4
			c0.1,0.7,0.3,1.5,0.5,2.2c1.6,5.6,5.5,8.8,11.1,10c2.8,0.6,5.6,0.6,8.4-0.1c3.3-0.8,5.8-2.6,7.6-5.4c0.3-0.4,0.6-0.9,0.9-1.4h17.1
			c-0.1,0.4-0.1,0.8-0.2,1.2c-0.6,2.9-2,5.3-3.7,7.7c-5,6.7-11.8,10.5-20.1,11.7c-5.8,0.8-11.6,0.6-17.3-1.1
			c-4.5-1.4-8.6-3.7-12.2-6.7c-4.3-3.7-6.8-8.5-8.1-13.9c-1.3-5.6-1.5-11.2-1-16.9c0.3-3.4,1-6.8,2.2-10c3.8-10,11-16,21.3-18.3
			c6-1.4,12.1-1.1,18.1,0.4c8.7,2.2,14.8,7.5,18.6,15.6c1.7,3.7,2.7,7.6,3,11.6c0.2,3,0.2,6,0.3,9C144,58.9,144,59.2,144,59.7"/>
	</g>
	<path class="st0" d="M94,12.6V3.8h36c0.1,2.9,0,5.9,0.1,8.8C128.6,12.9,94.8,12.8,94,12.6"/>
</g>
</svg>
