<?xml version="1.0" encoding="utf-8"?>
<!-- Generator: Adobe Illustrator 22.0.1, SVG Export Plug-In . SVG Version: 6.00 Build 0)  -->
<svg version="1.1" id="Layer_1" xmlns="http://www.w3.org/2000/svg" xmlns:xlink="http://www.w3.org/1999/xlink" x="0px" y="0px"
	 viewBox="0 0 90 90" style="enable-background:new 0 0 90 90;" xml:space="preserve">
<style type="text/css">
	.st0{fill:#ECEEF1;}
</style>
<g>
	<g>
		<path class="st0" d="M45,0C20.2,0,0,20.2,0,45c0,24.8,20.2,45,45,45c24.8,0,45-20.2,45-45C90,20.2,69.8,0,45,0z M36,7.7
			c2.9-0.7,5.9-1.1,9-1.1c9.8,0,18.7,3.7,25.5,9.7l0.2,0.1l-0.1,0.2c-0.7,1-6.5,8.8-20.1,13.9l-0.2,0.1l-0.1-0.2
			C43.9,18.9,36.9,9.4,35.9,8l-0.2-0.3L36,7.7z M7.3,37.2c2.5-11.9,10.5-21.9,21.3-26.9l0.2-0.1l0.1,0.2c1,1.4,7.8,10.9,14.2,22.1
			l0.1,0.3L43,32.8c-16.5,4.4-31.2,4.7-34.8,4.7l-0.7,0l-0.3,0L7.3,37.2z M16.6,71l-0.2-0.2C10.3,64,6.5,54.9,6.5,45.1
			c0-0.4,0-0.8,0-1.2l0-0.2l0.2,0c0.2,0,0.6,0,1.2,0c4.7,0,21.2-0.4,38-5.4l0.2-0.1l0.1,0.2c1.1,2.1,2.1,4.3,3.1,6.5l0.1,0.2
			l-0.3,0.1c-0.5,0.1-1,0.3-1.5,0.5c-19.6,6.3-30.1,23.7-31,25.1L16.6,71z M60,80.5c-4.6,2-9.7,3.1-15,3.1c-8.9,0-17.1-3-23.6-8.1
			l-0.1-0.1l0.1-0.2c0.7-1.4,8.5-16.5,30.1-24c0.1,0,0.2-0.1,0.3-0.1l0.2-0.1l0.1,0.2c5.4,14,7.6,25.7,8.2,29l0,0.2L60,80.5z
			 M83,51.2c-1.7,10.7-7.9,19.9-16.5,25.8l-0.3,0.2l-0.1-0.3c-0.4-2.3-2.4-13.5-7.4-27.2l-0.1-0.3l0.3,0c2.8-0.4,5.5-0.6,8-0.6
			c8.4,0,14.9,1.9,15.9,2.3L83,51L83,51.2z M65.4,43.2c-2.8,0-5.8,0.1-8.8,0.5l-0.2,0l-0.1-0.2c-0.3-0.7-0.5-1.3-0.8-2
			c-0.8-1.9-1.6-3.7-2.5-5.5l-0.1-0.2l0.2-0.1c14.1-5.8,20.5-13.9,21.3-15l0.2-0.2l0.2,0.2c5.4,6.5,8.6,14.9,8.7,24l0,0.3l-0.3-0.1
			C82.2,44.7,74.6,43.2,65.4,43.2z"/>
	</g>
</g>
</svg>
