<?xml version="1.0" encoding="utf-8"?>
<!-- Generator: Adobe Illustrator 22.0.1, SVG Export Plug-In . SVG Version: 6.00 Build 0)  -->
<svg version="1.1" id="Layer_1" xmlns="http://www.w3.org/2000/svg" xmlns:xlink="http://www.w3.org/1999/xlink" x="0px" y="0px"
	 viewBox="0 0 53 90" style="enable-background:new 0 0 53 90;" xml:space="preserve">
<style type="text/css">
	.st0{fill:#ECEEF1;}
</style>
<g>
	<path class="st0" d="M52.6,84.4c-3,3.3-10,5.5-16.3,5.6h-0.7C14.6,90,10,74.4,10,65.3V40H1.7c-1,0-1.7-0.8-1.7-1.8v0v-12
		c0-1.3,0.8-2.4,2-2.8c10.8-3.8,14.2-13.4,14.7-20.6C16.8,0.9,17.8,0,19.5,0h12.4c1,0,1.7,0.8,1.7,1.8V22H48c1,0,1.7,0.8,1.7,1.7
		v14.4c0,1-0.8,1.8-1.7,1.8H33.5v23.4c0,5.9,3.8,7.5,6.2,7.5c2.3-0.1,4.5-0.8,5.6-1.2c0.8-0.3,1.6-0.6,2.2-0.4
		c0.6,0.2,1,0.6,1.3,1.4l3.8,11.3C53,82.8,53.2,83.7,52.6,84.4z"/>
</g>
</svg>
