<?xml version="1.0" encoding="utf-8"?>
<!-- Generator: Adobe Illustrator 22.0.1, SVG Export Plug-In . SVG Version: 6.00 Build 0)  -->
<svg version="1.1" id="Layer_1" xmlns="http://www.w3.org/2000/svg" xmlns:xlink="http://www.w3.org/1999/xlink" x="0px" y="0px"
	 viewBox="0 0 224.5 223.7" style="enable-background:new 0 0 224.5 223.7;" xml:space="preserve">
<style type="text/css">
	.st0{fill:#FFFFFF;}
</style>
<path d="M217.1,3c-33.8,16.9-67.6,33.7-101.4,50.7c-2.8,1.4-4.9,1.5-7.8,0C74.3,36.7,40.4,19.9,6.6,3C4.7,2,2.8,1.1,0.9,0.2
	C0.7,0.5,0.5,0.8,0.4,1.1c37.1,74.1,74.1,148.2,111.5,223c37.4-74.9,74.5-149,112.2-224.5C220.9,1.2,219,2,217.1,3z M112.7,191.2
	c-0.4-0.1-0.7-0.2-1.1-0.3c0-1.4,0-2.8,0-4.3c0-36.8,0.1-73.6-0.1-110.5c0-3.7,1-5.5,4.4-7.2c23.3-11.4,46.4-23.1,69.6-34.7
	c2-1,4.1-2,7.4-3.6C165.8,85,139.3,138.1,112.7,191.2z"/>
<path class="st0" d="M111.6,190.9c0-1.4,0-2.8,0-4.3c0-36.8,0.1-73.6-0.1-110.5c0-3.7,1-5.5,4.4-7.2c23.3-11.4,46.4-23.1,69.6-34.7
	c2-1,4.1-2,7.4-3.6c-27.1,54.2-53.7,107.3-80.2,160.4C112.4,191.1,112,191,111.6,190.9z"/>
</svg>
