<?xml version="1.0" encoding="utf-8"?>
<!-- Generator: Adobe Illustrator 22.0.1, SVG Export Plug-In . SVG Version: 6.00 Build 0)  -->
<svg version="1.1" id="Layer_1" xmlns="http://www.w3.org/2000/svg" xmlns:xlink="http://www.w3.org/1999/xlink" x="0px" y="0px"
	 viewBox="0 0 342.7 485" style="enable-background:new 0 0 342.7 485;" xml:space="preserve">
<g>
	<path d="M152.1,141.3V201H0v-10.5l14.7-0.3V10.8L0,10.5V0h97.2v10.5l-32.7,0.3v178.8c25-8.8,50.1-19.8,75.3-33l0.6-15L152.1,141.3z
		"/>
	<path d="M152.1,425.3V485H0v-10.5l14.7-0.3V294.8L0,294.5V284h97.2v10.5l-32.7,0.3v178.8c25-8.8,50.1-19.8,75.3-33l0.6-15
		L152.1,425.3z"/>
	<path d="M342.7,284v58.2l-11.7-0.3l-0.6-15c-20.6-14.8-37.7-25.7-51.3-32.7v180l23.7,0.3V485h-97.2v-10.5l23.7-0.3v-180
		c-13.6,7-30.7,17.9-51.3,32.7l-0.6,15l-11.7,0.3V284H342.7z"/>
</g>
</svg>
